<?xml version="1.0" encoding="utf-8"?>
<!-- Generator: Adobe Illustrator 15.1.0, SVG Export Plug-In . SVG Version: 6.00 Build 0)  -->
<!DOCTYPE svg PUBLIC "-//W3C//DTD SVG 1.1//EN" "http://www.w3.org/Graphics/SVG/1.1/DTD/svg11.dtd">
<svg version="1.1"
	 id="svg1" xmlns:inkscape="http://www.inkscape.org/namespaces/inkscape" xmlns:sodipodi="http://sodipodi.sourceforge.net/DTD/sodipodi-0.dtd" xmlns:svg="http://www.w3.org/2000/svg" xmlns:rdf="http://www.w3.org/1999/02/22-rdf-syntax-ns#" xmlns:cc="http://web.resource.org/cc/" xmlns:dc="http://purl.org/dc/elements/1.1/" inkscape:output_extension="org.inkscape.output.svg.inkscape" sodipodi:version="0.32" inkscape:version="0.45.1" sodipodi:docname="telephone.svg" sodipodi:docbase="C:\Dokumente und Einstellungen\ulfl\Eigene Dateien\svn.openstreetmap.org\applications\share\map-icons\svg\public"
	 xmlns="http://www.w3.org/2000/svg" xmlns:xlink="http://www.w3.org/1999/xlink" x="0px" y="0px" width="24.033px"
	 height="32.088px" viewBox="0 0 24.033 32.088" enable-background="new 0 0 24.033 32.088" xml:space="preserve">
<sodipodi:namedview  borderopacity="1.0" inkscape:window-x="-4" inkscape:window-height="960" inkscape:pageopacity="0.0" inkscape:cx="79.275099" inkscape:pageshadow="2" inkscape:cy="50.285521" inkscape:window-width="1400" inkscape:window-y="-4" id="base" inkscape:current-layer="svg1" bordercolor="#666666" inkscape:zoom="3.6095087" pagecolor="#ffffff">
	</sodipodi:namedview>
<g id="g10" transform="matrix(0.2752276,0,0,0.2752276,-11.207867,-6.2697836)">
	<path id="path11" fill="#8C8C8C" d="M66.118,22.887c0,0-25.724,0.335-25.391,23.388c0.332,23.053,5.01,43.435,12.694,54.793
		c7.685,11.358,27.397,41.092,49.781,38.086c0,0,11.024-2.338,19.377-7.682l-27.062-21.048c0,0-8.019,5.01-13.027-1.675
		c-5.015-6.681-20.714-37.751-20.714-37.751s-4.343-10.026,5.344-14.368L66.118,22.887z"/>
	<path id="path12" fill="#8C8C8C" d="M69.124,22.887c0,0,2.005-0.667,5.681,1.338c3.676,2.005,3.676,3.674,3.676,3.674l0.332,23.053
		c0,0-1.001,1.339-2.337,2.675c-1.338,1.336-5.682,3.341-6.349,2.005C69.461,54.292,69.124,22.887,69.124,22.887z"/>
	<path id="path13" sodipodi:nodetypes="ccccccc" fill="#8C8C8C" d="M97.766,107.958l7.441-3.885c0,0,1.671-0.333,4.343,1.338
		c2.672,1.671,16.708,12.695,16.708,12.695s2.335,2.005,1.668,4.343c-0.671,2.338-2.342,7.348-2.342,7.348L97.766,107.958z"/>
</g>
</svg>
